<svg width="286" height="129" viewBox="0 0 286 129" fill="none" xmlns="http://www.w3.org/2000/svg">
<g filter="url(#filter0_d_38_23)">
<path d="M4 15C4 6.71573 10.7157 0 19 0H267C275.284 0 282 6.71573 282 15V106C282 114.284 275.284 121 267 121H19C10.7157 121 4 114.284 4 106V15Z" fill="#F2F2F2"/>
<path d="M125.304 58.4621H126.544L128.37 63.6818L130.196 58.4621H131.437L128.868 65.5714H127.872L125.304 58.4621ZM124.635 58.4621H125.87L126.095 63.5499V65.5714H124.635V58.4621ZM130.87 58.4621H132.11V65.5714H130.646V63.5499L130.87 58.4621ZM134.952 58.4621V65.5714H133.492V58.4621H134.952ZM140.025 63.7111C140.025 63.5841 140.006 63.4702 139.967 63.3693C139.931 63.2651 139.863 63.1707 139.762 63.0861C139.661 62.9982 139.519 62.9119 139.337 62.8273C139.155 62.7427 138.919 62.6548 138.629 62.5636C138.307 62.4594 138.001 62.3423 137.711 62.2121C137.424 62.0818 137.171 61.9305 136.949 61.7579C136.731 61.5822 136.559 61.3787 136.432 61.1476C136.308 60.9165 136.246 60.6479 136.246 60.3419C136.246 60.0457 136.311 59.7772 136.441 59.5363C136.572 59.2921 136.754 59.0838 136.988 58.9113C137.223 58.7355 137.499 58.6004 137.818 58.506C138.141 58.4116 138.494 58.3644 138.878 58.3644C139.402 58.3644 139.859 58.4588 140.25 58.6476C140.641 58.8364 140.943 59.0952 141.158 59.424C141.376 59.7527 141.485 60.1287 141.485 60.5519H140.03C140.03 60.3436 139.986 60.1613 139.898 60.005C139.814 59.8455 139.684 59.7202 139.508 59.629C139.335 59.5379 139.117 59.4923 138.854 59.4923C138.6 59.4923 138.388 59.5314 138.219 59.6095C138.049 59.6844 137.923 59.7869 137.838 59.9171C137.753 60.0441 137.711 60.1873 137.711 60.3468C137.711 60.4673 137.74 60.5763 137.799 60.674C137.861 60.7716 137.952 60.8628 138.072 60.9474C138.193 61.032 138.341 61.1118 138.517 61.1867C138.692 61.2615 138.896 61.3348 139.127 61.4064C139.514 61.5236 139.854 61.6554 140.147 61.8019C140.444 61.9484 140.691 62.1128 140.89 62.2951C141.088 62.4774 141.238 62.6841 141.339 62.9152C141.44 63.1463 141.49 63.4083 141.49 63.7013C141.49 64.0106 141.43 64.2872 141.31 64.5314C141.189 64.7755 141.015 64.9822 140.787 65.1515C140.559 65.3208 140.287 65.4494 139.972 65.5372C139.656 65.6251 139.303 65.6691 138.912 65.6691C138.561 65.6691 138.214 65.6235 137.872 65.5324C137.53 65.438 137.219 65.2964 136.939 65.1076C136.663 64.9188 136.441 64.6779 136.275 64.3849C136.109 64.0919 136.026 63.7453 136.026 63.3449H137.496C137.496 63.5662 137.53 63.7534 137.599 63.9064C137.667 64.0594 137.763 64.1831 137.887 64.2775C138.014 64.3719 138.163 64.4402 138.336 64.4826C138.512 64.5249 138.704 64.546 138.912 64.546C139.166 64.546 139.374 64.5102 139.537 64.4386C139.703 64.367 139.825 64.2677 139.903 64.1408C139.985 64.0138 140.025 63.8706 140.025 63.7111ZM146.188 63.7111C146.188 63.5841 146.168 63.4702 146.129 63.3693C146.093 63.2651 146.025 63.1707 145.924 63.0861C145.823 62.9982 145.681 62.9119 145.499 62.8273C145.317 62.7427 145.081 62.6548 144.791 62.5636C144.469 62.4594 144.163 62.3423 143.873 62.2121C143.587 62.0818 143.333 61.9305 143.111 61.7579C142.893 61.5822 142.721 61.3787 142.594 61.1476C142.47 60.9165 142.408 60.6479 142.408 60.3419C142.408 60.0457 142.473 59.7772 142.604 59.5363C142.734 59.2921 142.916 59.0838 143.15 58.9113C143.385 58.7355 143.661 58.6004 143.98 58.506C144.303 58.4116 144.656 58.3644 145.04 58.3644C145.564 58.3644 146.021 58.4588 146.412 58.6476C146.803 58.8364 147.105 59.0952 147.32 59.424C147.538 59.7527 147.647 60.1287 147.647 60.5519H146.192C146.192 60.3436 146.148 60.1613 146.061 60.005C145.976 59.8455 145.846 59.7202 145.67 59.629C145.497 59.5379 145.279 59.4923 145.016 59.4923C144.762 59.4923 144.55 59.5314 144.381 59.6095C144.212 59.6844 144.085 59.7869 144 59.9171C143.915 60.0441 143.873 60.1873 143.873 60.3468C143.873 60.4673 143.902 60.5763 143.961 60.674C144.023 60.7716 144.114 60.8628 144.234 60.9474C144.355 61.032 144.503 61.1118 144.679 61.1867C144.854 61.2615 145.058 61.3348 145.289 61.4064C145.676 61.5236 146.017 61.6554 146.31 61.8019C146.606 61.9484 146.853 62.1128 147.052 62.2951C147.25 62.4774 147.4 62.6841 147.501 62.9152C147.602 63.1463 147.652 63.4083 147.652 63.7013C147.652 64.0106 147.592 64.2872 147.472 64.5314C147.351 64.7755 147.177 64.9822 146.949 65.1515C146.721 65.3208 146.45 65.4494 146.134 65.5372C145.818 65.6251 145.465 65.6691 145.074 65.6691C144.723 65.6691 144.376 65.6235 144.034 65.5324C143.692 65.438 143.382 65.2964 143.102 65.1076C142.825 64.9188 142.604 64.6779 142.438 64.3849C142.271 64.0919 142.188 63.7453 142.188 63.3449H143.658C143.658 63.5662 143.692 63.7534 143.761 63.9064C143.829 64.0594 143.925 64.1831 144.049 64.2775C144.176 64.3719 144.326 64.4402 144.498 64.4826C144.674 64.5249 144.866 64.546 145.074 64.546C145.328 64.546 145.536 64.5102 145.699 64.4386C145.865 64.367 145.987 64.2677 146.065 64.1408C146.147 64.0138 146.188 63.8706 146.188 63.7111ZM151.539 59.6779L149.605 65.5714H148.048L150.689 58.4621H151.681L151.539 59.6779ZM153.146 65.5714L151.207 59.6779L151.051 58.4621H152.052L154.708 65.5714H153.146ZM153.058 62.9249V64.0724H149.303V62.9249H153.058ZM152.408 56.5822L153.219 56.6359C153.219 56.8735 153.172 57.09 153.077 57.2853C152.983 57.4774 152.853 57.632 152.687 57.7492C152.521 57.8631 152.33 57.9201 152.115 57.9201C151.959 57.9201 151.824 57.8989 151.71 57.8566C151.599 57.8143 151.497 57.7654 151.402 57.7101C151.308 57.6515 151.21 57.601 151.109 57.5587C151.012 57.5164 150.899 57.4953 150.772 57.4953C150.659 57.4953 150.561 57.5359 150.479 57.6173C150.401 57.6987 150.362 57.8159 150.362 57.9689L149.547 57.9249C149.547 57.6906 149.594 57.4757 149.688 57.2804C149.783 57.0851 149.913 56.9288 150.079 56.8117C150.245 56.6912 150.434 56.631 150.646 56.631C150.779 56.631 150.901 56.6538 151.012 56.6994C151.122 56.7417 151.228 56.7905 151.329 56.8458C151.433 56.9012 151.539 56.95 151.646 56.9923C151.754 57.0346 151.868 57.0558 151.988 57.0558C152.102 57.0558 152.2 57.0151 152.281 56.9337C152.366 56.8491 152.408 56.7319 152.408 56.5822ZM161.119 61.8507V62.1876C161.119 62.728 161.046 63.213 160.899 63.6427C160.753 64.0724 160.546 64.4386 160.279 64.7413C160.012 65.0408 159.693 65.2703 159.322 65.4298C158.954 65.5893 158.546 65.6691 158.097 65.6691C157.651 65.6691 157.242 65.5893 156.871 65.4298C156.503 65.2703 156.184 65.0408 155.914 64.7413C155.644 64.4386 155.434 64.0724 155.284 63.6427C155.138 63.213 155.064 62.728 155.064 62.1876V61.8507C155.064 61.3071 155.138 60.8221 155.284 60.3956C155.431 59.966 155.637 59.5997 155.904 59.297C156.174 58.9943 156.493 58.7632 156.861 58.6037C157.232 58.4441 157.641 58.3644 158.087 58.3644C158.536 58.3644 158.945 58.4441 159.312 58.6037C159.684 58.7632 160.003 58.9943 160.27 59.297C160.54 59.5997 160.748 59.966 160.895 60.3956C161.044 60.8221 161.119 61.3071 161.119 61.8507ZM159.64 62.1876V61.841C159.64 61.4634 159.605 61.1313 159.537 60.8449C159.469 60.5584 159.368 60.3175 159.234 60.1222C159.101 59.9269 158.938 59.7804 158.746 59.6828C158.554 59.5818 158.334 59.5314 158.087 59.5314C157.84 59.5314 157.62 59.5818 157.428 59.6828C157.239 59.7804 157.078 59.9269 156.944 60.1222C156.814 60.3175 156.715 60.5584 156.646 60.8449C156.578 61.1313 156.544 61.4634 156.544 61.841V62.1876C156.544 62.562 156.578 62.894 156.646 63.1837C156.715 63.4702 156.816 63.7127 156.949 63.9113C157.083 64.1066 157.245 64.2547 157.438 64.3556C157.63 64.4565 157.849 64.507 158.097 64.507C158.344 64.507 158.564 64.4565 158.756 64.3556C158.948 64.2547 159.109 64.1066 159.239 63.9113C159.369 63.7127 159.469 63.4702 159.537 63.1837C159.605 62.894 159.64 62.562 159.64 62.1876Z" fill="black"/>
</g>
<defs>
<filter id="filter0_d_38_23" x="0" y="0" width="286" height="129" filterUnits="userSpaceOnUse" color-interpolation-filters="sRGB">
<feFlood flood-opacity="0" result="BackgroundImageFix"/>
<feColorMatrix in="SourceAlpha" type="matrix" values="0 0 0 0 0 0 0 0 0 0 0 0 0 0 0 0 0 0 127 0" result="hardAlpha"/>
<feOffset dy="4"/>
<feGaussianBlur stdDeviation="2"/>
<feComposite in2="hardAlpha" operator="out"/>
<feColorMatrix type="matrix" values="0 0 0 0 0 0 0 0 0 0 0 0 0 0 0 0 0 0 0.25 0"/>
<feBlend mode="normal" in2="BackgroundImageFix" result="effect1_dropShadow_38_23"/>
<feBlend mode="normal" in="SourceGraphic" in2="effect1_dropShadow_38_23" result="shape"/>
</filter>
</defs>
</svg>
