<svg width="33" height="32" viewBox="0 0 33 32" fill="none" xmlns="http://www.w3.org/2000/svg">
<path d="M31.7908 20.9672C31.2207 19.5656 30.675 17.9688 30.6516 16.0984C30.6507 16.0488 30.6479 16.0312 30.6479 16.0312C30.6544 15.0536 30.888 14.5144 31.1815 13.804C31.4777 13.1024 31.8291 12.2344 31.8244 10.9736C31.8244 10.664 31.8048 10.3288 31.7618 9.9648C31.8674 9.96 31.9739 9.9544 32.0795 9.9488C31.9216 7.5864 31.0787 5.3104 29.6517 3.3184C29.2826 3.512 28.9153 3.7056 28.5471 3.8992C28.0191 3.1648 27.407 2.4712 26.7118 1.832C26.237 2.2104 25.7623 2.5856 25.2885 2.964C25.895 3.5232 26.4305 4.1272 26.8893 4.7704C27.2351 5.252 27.536 5.7536 27.7958 6.2704C28.3967 7.48 28.7555 8.7768 28.8452 10.1088C29.1938 10.092 29.5442 10.0736 29.8928 10.0576C29.9348 10.3992 29.9554 10.7048 29.9554 10.9736C29.9489 12 29.7134 12.5592 29.4218 13.2648C29.1284 13.96 28.7751 14.808 28.7789 16.0312C28.7807 16.0824 28.7817 16.1136 28.7817 16.1264C28.806 18.2456 29.433 20.0376 30.0246 21.4928C30.6282 22.9424 31.1506 24.0968 31.1301 24.76C31.1076 25.1848 31.0329 25.3664 30.6254 25.6704C30.2479 25.9256 29.9704 25.9912 29.7535 25.992C29.3358 26.0184 28.6284 25.6224 28.0322 24.5048C27.4453 23.4152 27.0444 21.7672 27.0472 19.8184C27.0472 19.4296 27.0641 19.0272 27.0977 18.6144C27.1986 17.2992 27.2444 16.16 27.2472 15.1672C27.2332 12.0368 26.8108 10.3672 25.9997 9.3168C25.4259 8.5552 24.5904 8.284 23.9213 8.1968V3.2C23.9213 1.4328 22.2486 0 20.1833 0H6.7284C4.66316 0 2.9904 1.4328 2.9904 3.2V28.8H0V32H26.9136V28.8H23.9232V9.8256C24.0998 9.8784 24.2512 9.984 24.4549 10.2144C24.8904 10.7344 25.3904 12.1696 25.3773 15.1664C25.3792 16.1144 25.3324 17.22 25.2334 18.5056C25.1979 18.952 25.1801 19.3912 25.1801 19.8176C25.182 21.952 25.5978 23.792 26.3314 25.1696C27.0528 26.5168 28.1677 27.5656 29.7535 27.5928C30.4759 27.5928 31.1787 27.3408 31.7954 26.916C32.6271 26.368 33.0215 25.5344 32.9991 24.7592C32.9785 23.5472 32.3505 22.3768 31.7908 20.9672ZM20.9328 12.16H5.9808V5.76H20.9328V12.16Z" fill="white"/>
</svg>
