<svg width="23" height="22" viewBox="0 0 23 22" fill="none" xmlns="http://www.w3.org/2000/svg">
<path d="M22.1572 14.415C21.7599 13.4514 21.3795 12.3535 21.3632 11.0676C21.3626 11.0335 21.3606 11.0214 21.3606 11.0214C21.3652 10.3493 21.528 9.97865 21.7325 9.49025C21.939 9.0079 22.1839 8.41115 22.1806 7.54435C22.1806 7.3315 22.167 7.10105 22.137 6.8508C22.2106 6.8475 22.2849 6.84365 22.3585 6.8398C22.2484 5.21565 21.6609 3.6509 20.6663 2.2814C20.4091 2.4145 20.1531 2.5476 19.8965 2.6807C19.5285 2.1758 19.1019 1.69895 18.6173 1.2595C18.2864 1.51965 17.9555 1.7776 17.6253 2.03775C18.048 2.4222 18.4212 2.83745 18.741 3.27965C18.982 3.61075 19.1917 3.9556 19.3728 4.3109C19.7916 5.1425 20.0417 6.03405 20.1042 6.9498C20.3472 6.93825 20.5914 6.9256 20.8344 6.9146C20.8637 7.14945 20.878 7.35955 20.878 7.54435C20.8734 8.25 20.7093 8.63445 20.5061 9.11955C20.3016 9.5975 20.0554 10.1805 20.058 11.0214C20.0593 11.0566 20.06 11.0781 20.06 11.0869C20.0769 12.5439 20.5139 13.7758 20.9262 14.7763C21.347 15.7729 21.711 16.5666 21.6967 17.0225C21.6811 17.3146 21.629 17.4394 21.345 17.6484C21.0819 17.8239 20.8884 17.869 20.7373 17.8695C20.4462 17.8877 19.9531 17.6154 19.5376 16.8471C19.1286 16.098 18.8492 14.965 18.8511 13.6252C18.8511 13.3579 18.8628 13.0812 18.8863 12.7974C18.9566 11.8932 18.9885 11.11 18.9905 10.4275C18.9807 8.2753 18.6863 7.12745 18.121 6.4053C17.7211 5.8817 17.1388 5.69525 16.6724 5.6353V2.2C16.6724 0.98505 15.5066 0 14.0672 0H4.68949C3.25008 0 2.08422 0.98505 2.08422 2.2V19.8H0V22H18.758V19.8H16.6737V6.7551C16.7968 6.7914 16.9024 6.864 17.0443 7.0224C17.3479 7.3799 17.6963 8.3666 17.6872 10.4269C17.6885 11.0787 17.6559 11.8388 17.5869 12.7226C17.5621 13.0295 17.5498 13.3314 17.5498 13.6246C17.5511 15.092 17.8409 16.357 18.3522 17.3041C18.855 18.2303 19.632 18.9514 20.7373 18.9701C21.2408 18.9701 21.7306 18.7968 22.1605 18.5048C22.7401 18.128 23.015 17.5549 22.9994 17.022C22.985 16.1887 22.5473 15.3841 22.1572 14.415ZM14.5895 8.36H4.16844V3.96H14.5895V8.36Z" fill="black"/>
</svg>
