<svg width="29" height="28" viewBox="0 0 29 28" fill="none" xmlns="http://www.w3.org/2000/svg">
<path d="M0.657884 0H28.3403C28.7047 0 28.9999 0.326973 28.9999 0.730528C28.9999 0.952692 28.9105 1.15159 28.7691 1.28568L17.7195 13.4618V23.9111C17.7195 24.2005 17.5677 24.4503 17.3475 24.5687L12.1352 27.9017C11.8206 28.1032 11.418 27.9843 11.2355 27.6362C11.1753 27.5209 11.1468 27.3952 11.147 27.2708H11.1456V13.4595L0.191307 1.24438C-0.0649917 0.958965 -0.0638117 0.497648 0.193903 0.214062C0.322289 0.0726607 0.490086 0.00209096 0.657884 0.00209096V0ZM26.7444 1.46132H2.24028L12.2369 12.6085C12.3766 12.7423 12.4649 12.9404 12.4649 13.161V26.0071L16.4 23.4914V13.161H16.4019C16.4019 12.9739 16.4665 12.7867 16.5958 12.6443L26.7444 1.46132Z" fill="#1C5C9C"/>
</svg>
